<svg xmlns="http://www.w3.org/2000/svg" viewBox="0 0 410 404"><defs><linearGradient id="a" x1="92.7%" x2="6.2%" y1="0%" y2="100%"><stop offset="0%" stop-color="#FFEA83"/><stop offset="8.333%" stop-color="#FFDD35"/><stop offset="100%" stop-color="#FFA800"/></linearGradient><linearGradient id="b" x1="19.4%" x2="78.8%" y1="15.7%" y2="84.3%"><stop offset="0%" stop-color="#7B3FE4"/><stop offset="100%" stop-color="#4F46E5"/></linearGradient></defs><path fill="url(#a)" d="M399.6 43.5 215.6 388.4c-5.5 10.5-20.6 10.7-26.3.3L9.4 43.6c-6-10.8 2.6-23.7 14.7-22.1L205 39.5c1.1.1 2.3.1 3.4 0l176.6-17.9c12.1-1.2 20.1 12 13.8 22.7Z"/><path fill="url(#b)" d="M292.5 1.5 156.9 15.4c-2 .2-3.6 1.7-3.9 3.7l-12.6 86.2c-.3 2.1 1 4.1 3 4.7l35.2 9.5c2.4.7 4.8-1 4.9-3.5l2.2-57.8c.1-2.6 2.5-4.6 5.1-4.1l36.1 5.9c2.6.4 4.3 3 3.5 5.5l-22.8 71.5c-.8 2.4.5 5.1 2.9 5.9l21.7 7.6c2.4.8 5-.5 5.8-3l38.5-118.5c.8-2.5-.9-5.1-3.5-5.4Z"/></svg>
